<svg width="73" height="67" viewBox="0 0 73 67" fill="none" xmlns="http://www.w3.org/2000/svg">
<path d="M70.8197 54.3772C70.2424 53.4583 69.4877 52.6636 68.5997 52.0397C67.7118 51.4158 66.7083 50.9752 65.6481 50.7435C61.5917 49.8001 58.0737 47.2894 55.8627 43.7601C53.6518 40.2307 52.9278 35.9697 53.8488 31.9082C54.2029 30.3384 54.0853 28.699 53.5107 27.1958C52.9361 25.6926 51.9302 24.3927 50.6193 23.4594C49.3083 22.5261 47.7508 22.001 46.1423 21.9499C44.5339 21.8989 42.9463 22.3242 41.5788 23.1725C40.2113 24.0209 39.125 25.2543 38.4562 26.718C37.7875 28.1818 37.5661 29.8104 37.82 31.3995C38.0738 32.9886 38.7916 34.4673 39.8831 35.6498C40.9745 36.8323 42.3911 37.666 43.9548 38.046C45.9778 38.5023 47.8908 39.3534 49.5842 40.5505C51.2776 41.7475 52.7181 43.2671 53.8231 45.0219C54.9281 46.7768 55.6759 48.7325 56.0236 50.7769C56.3714 52.8213 56.3122 54.9143 55.8495 56.9358C55.5755 58.239 55.6243 59.5894 55.9918 60.8693C56.3593 62.1492 57.0343 63.3198 57.9579 64.2792C58.8815 65.2385 60.0256 65.9574 61.2907 66.3732C62.5558 66.789 63.9033 66.889 65.2159 66.6647C66.5286 66.4404 67.7664 65.8984 68.8216 65.0861C69.8768 64.2737 70.7172 63.2157 71.2698 62.0041C71.8223 60.7924 72.0702 59.4641 71.9918 58.1348C71.9133 56.8054 71.511 55.5154 70.8197 54.3772Z" fill="#414042"/>
<path d="M20.6142 45.3133C22.0427 46.0928 23.6714 46.4278 25.2915 46.2752C26.9117 46.1226 28.4492 45.4894 29.707 44.4569C30.9648 43.4243 31.8854 42.0395 32.3506 40.4802C32.8159 38.9208 32.8046 37.258 32.3182 35.7051C31.7017 33.7249 31.4821 31.6426 31.672 29.5774C31.8619 27.5122 32.4574 25.5048 33.4247 23.6703C34.3919 21.8358 35.7117 20.2102 37.3084 18.8867C38.9051 17.5632 40.7473 16.568 42.7294 15.9579C44.2667 15.4764 45.6271 14.5509 46.6396 13.298C47.6521 12.0451 48.2714 10.5207 48.4195 8.91658C48.5677 7.31248 48.2381 5.70038 47.4722 4.28328C46.7063 2.86608 45.5383 1.70708 44.1153 0.952178C42.6922 0.197278 41.0777 -0.119921 39.4749 0.0406786C37.872 0.201179 36.3524 0.832178 35.1073 1.85438C33.8622 2.87648 32.9473 4.24408 32.4776 5.78498C32.008 7.32588 32.0046 8.97128 32.4679 10.5141C33.6841 14.4971 33.2728 18.7998 31.3242 22.4803C29.3755 26.1608 26.0482 28.9194 22.0704 30.1524C20.5001 30.6078 19.1026 31.524 18.0589 32.7826C17.0152 34.0412 16.3733 35.5841 16.2164 37.2115C16.0596 38.839 16.3949 40.4761 17.179 41.9108C17.9631 43.3456 19.1598 44.5119 20.6142 45.2588V45.3133Z" fill="#414042"/>
<path d="M41.6273 43.9794C40.5416 44.0175 39.4745 44.2719 38.4883 44.7276C37.5021 45.1833 36.6168 45.8311 35.8841 46.6333C33.0416 49.6736 29.1109 51.4648 24.9515 51.6153C20.792 51.7658 16.7421 50.2632 13.6873 47.4362C12.898 46.6956 11.9694 46.1193 10.9554 45.7408C9.94151 45.3623 8.86241 45.1892 7.78091 45.2315C6.44971 45.2943 5.15401 45.682 4.00711 46.3607C2.86011 47.0394 1.89681 47.9885 1.20111 49.1251C0.505306 50.2618 0.0984058 51.5515 0.0157058 52.8816C-0.0668942 54.2118 0.177206 55.5419 0.726906 56.756C1.27661 57.97 2.11501 59.0311 3.16911 59.8466C4.22321 60.6621 5.4608 61.2071 6.774 61.4342C8.0872 61.6613 9.43611 61.5636 10.7028 61.1495C11.9696 60.7354 13.1157 60.0176 14.0411 59.0586C15.4489 57.5344 17.1435 56.3029 19.0279 55.4347C20.9124 54.5665 22.9496 54.0785 25.0229 53.9989C27.0962 53.9193 29.1649 54.2494 31.1104 54.9705C33.0559 55.6917 34.84 56.7895 36.3605 58.2012C37.3504 59.0957 38.5444 59.7339 39.838 60.0601C41.1317 60.3864 42.4855 60.3907 43.7812 60.0727C45.0769 59.7547 46.2748 59.1241 47.2704 58.236C48.266 57.3479 49.0288 56.2293 49.4922 54.9782C49.9555 53.7271 50.1052 52.3816 49.9283 51.0592C49.7513 49.7369 49.253 48.4781 48.4769 47.3928C47.7009 46.3076 46.6709 45.4291 45.4768 44.834C44.2827 44.239 42.961 43.9455 41.6273 43.9794Z" fill="#414042"/>
</svg>
