<svg width="33" height="32" viewBox="0 0 33 32" fill="none" xmlns="http://www.w3.org/2000/svg">
<path d="M16.5 19C18.1569 19 19.5 17.6569 19.5 16C19.5 14.3431 18.1569 13 16.5 13C14.8431 13 13.5 14.3431 13.5 16C13.5 17.6569 14.8431 19 16.5 19Z" fill="white"/>
<path d="M6.5 19C8.15685 19 9.5 17.6569 9.5 16C9.5 14.3431 8.15685 13 6.5 13C4.84315 13 3.5 14.3431 3.5 16C3.5 17.6569 4.84315 19 6.5 19Z" fill="white"/>
<path d="M26.5 19C28.1569 19 29.5 17.6569 29.5 16C29.5 14.3431 28.1569 13 26.5 13C24.8431 13 23.5 14.3431 23.5 16C23.5 17.6569 24.8431 19 26.5 19Z" fill="white"/>
</svg>
