<svg width="490" height="41" viewBox="0 0 490 41" fill="none" xmlns="http://www.w3.org/2000/svg">
<path d="M15.4795 35V36.5H16.9795V35H15.4795ZM15.1865 18.667L14.9059 17.1935L13.5889 17.4443L13.6909 18.7811L15.1865 18.667ZM15.6992 18.5693L17.1101 18.0599L16.6755 16.8564L15.4186 17.0958L15.6992 18.5693ZM21.6318 35L20.221 35.5094L20.5787 36.5H21.6318V35ZM32.9355 35V36.5H33.9873L34.3457 35.5113L32.9355 35ZM38.8926 18.5693L39.1868 17.0985L37.922 16.8455L37.4824 18.0581L38.8926 18.5693ZM39.3809 18.667L40.8755 18.7937L40.9886 17.4588L39.675 17.1961L39.3809 18.667ZM39.0879 35H37.5879V36.5H39.0879V35ZM53.7363 35V36.5H55.2363V35H53.7363ZM53.7363 0.820312H55.2363V-0.679688H53.7363V0.820312ZM35.499 0.820312V-0.679688H34.4958L34.1127 0.247459L35.499 0.820312ZM30.6162 12.6367L32.0002 13.2151L32.0025 13.2096L30.6162 12.6367ZM27.6377 21.2305V22.7305H28.7507L29.0733 21.6653L27.6377 21.2305ZM27.125 21.2305L25.6894 21.6653L26.012 22.7305H27.125V21.2305ZM24.1465 12.6367L22.7632 13.2169L22.7667 13.2251L24.1465 12.6367ZM19.1904 0.820312L20.5737 0.240144L20.1879 -0.679688H19.1904V0.820312ZM0.831055 0.820312V-0.679688H-0.668945V0.820312H0.831055ZM0.831055 35H-0.668945V36.5H0.831055V35ZM16.9795 35V25.4053H13.9795V35H16.9795ZM16.9795 25.4053C16.9795 23.4306 16.9041 21.463 16.6822 18.5529L13.6909 18.7811C13.9084 21.6327 13.9795 23.5225 13.9795 25.4053H16.9795ZM15.4672 20.1405L15.9799 20.0428L15.4186 17.0958L14.9059 17.1935L15.4672 20.1405ZM14.2884 19.0788L20.221 35.5094L23.0427 34.4906L17.1101 18.0599L14.2884 19.0788ZM21.6318 36.5H32.9355V33.5H21.6318V36.5ZM34.3457 35.5113L40.3028 19.0806L37.4824 18.0581L31.5254 34.4887L34.3457 35.5113ZM38.5984 20.0402L39.0867 20.1379L39.675 17.1961L39.1868 17.0985L38.5984 20.0402ZM37.8862 18.5403C37.638 21.4688 37.5879 23.4402 37.5879 25.4053H40.5879C40.5879 23.5129 40.6354 21.6269 40.8755 18.7937L37.8862 18.5403ZM37.5879 25.4053V35H40.5879V25.4053H37.5879ZM39.0879 36.5H53.7363V33.5H39.0879V36.5ZM55.2363 35V0.820312H52.2363V35H55.2363ZM53.7363 -0.679688H35.499V2.32031H53.7363V-0.679688ZM34.1127 0.247459L29.2299 12.0639L32.0025 13.2096L36.8853 1.39317L34.1127 0.247459ZM29.2322 12.0583C28.5248 13.7511 27.5072 16.4862 26.2021 20.7957L29.0733 21.6653C30.356 17.4298 31.3405 14.7938 32.0002 13.2151L29.2322 12.0583ZM27.6377 19.7305H27.125V22.7305H27.6377V19.7305ZM28.5606 20.7957C27.2577 16.4935 26.2632 13.7763 25.5262 12.0483L22.7667 13.2251C23.4458 14.8174 24.4045 17.4225 25.6894 21.6653L28.5606 20.7957ZM25.5297 12.0566L20.5737 0.240144L17.8072 1.40048L22.7632 13.2169L25.5297 12.0566ZM19.1904 -0.679688H0.831055V2.32031H19.1904V-0.679688ZM-0.668945 0.820312V35H2.33105V0.820312H-0.668945ZM0.831055 36.5H15.4795V33.5H0.831055V36.5ZM94.0166 35V36.5H95.5166V35H94.0166ZM94.0166 26.2109H95.5166V24.7109H94.0166V26.2109ZM75.5596 26.2109H74.0596V27.7109H75.5596V26.2109ZM75.5596 21.8652V20.3652H74.0596V21.8652H75.5596ZM92.5273 21.8652V23.3652H94.0273V21.8652H92.5273ZM92.5273 13.8086H94.0273V12.3086H92.5273V13.8086ZM75.5596 13.8086H74.0596V15.3086H75.5596V13.8086ZM75.5596 9.60938V8.10938H74.0596V9.60938H75.5596ZM93.5283 9.60938V11.1094H95.0283V9.60938H93.5283ZM93.5283 0.820312H95.0283V-0.679688H93.5283V0.820312ZM60.4229 0.820312V-0.679688H58.9229V0.820312H60.4229ZM60.4229 35H58.9229V36.5H60.4229V35ZM95.5166 35V26.2109H92.5166V35H95.5166ZM94.0166 24.7109H75.5596V27.7109H94.0166V24.7109ZM77.0596 26.2109V21.8652H74.0596V26.2109H77.0596ZM75.5596 23.3652H92.5273V20.3652H75.5596V23.3652ZM94.0273 21.8652V13.8086H91.0273V21.8652H94.0273ZM92.5273 12.3086H75.5596V15.3086H92.5273V12.3086ZM77.0596 13.8086V9.60938H74.0596V13.8086H77.0596ZM75.5596 11.1094H93.5283V8.10938H75.5596V11.1094ZM95.0283 9.60938V0.820312H92.0283V9.60938H95.0283ZM93.5283 -0.679688H60.4229V2.32031H93.5283V-0.679688ZM58.9229 0.820312V35H61.9229V0.820312H58.9229ZM60.4229 36.5H94.0166V33.5H60.4229V36.5ZM114.497 35V36.5H115.997V35H114.497ZM114.497 11.0742V9.57422H112.997V11.0742H114.497ZM131.782 11.0742V12.5742H133.282V11.0742H131.782ZM131.782 0.820312H133.282V-0.679688H131.782V0.820312ZM99.3604 0.820312V-0.679688H97.8604V0.820312H99.3604ZM99.3604 35H97.8604V36.5H99.3604V35ZM115.997 35V11.0742H112.997V35H115.997ZM114.497 12.5742H131.782V9.57422H114.497V12.5742ZM133.282 11.0742V0.820312H130.282V11.0742H133.282ZM131.782 -0.679688H99.3604V2.32031H131.782V-0.679688ZM97.8604 0.820312V35H100.86V0.820312H97.8604ZM99.3604 36.5H114.497V33.5H99.3604V36.5ZM147.404 35V36.5H148.548L148.851 35.3973L147.404 35ZM148.356 31.5332V30.0332H147.213L146.91 31.1359L148.356 31.5332ZM157.951 31.5332L159.398 31.1359L159.095 30.0332H157.951V31.5332ZM158.903 35L157.457 35.3973L157.76 36.5H158.903V35ZM174.528 35V36.5H176.647L175.943 34.5018L174.528 35ZM162.492 0.820312L163.907 0.322087L163.554 -0.679688H162.492V0.820312ZM144.597 0.820312V-0.679688H143.534L143.182 0.322987L144.597 0.820312ZM132.585 35L131.17 34.5027L130.468 36.5H132.585V35ZM151.774 17.5684L153.236 17.9061L153.236 17.9056L151.774 17.5684ZM152.946 11.3184V9.81836H151.65L151.462 11.1005L152.946 11.3184ZM153.435 11.3184L154.919 11.1005L154.73 9.81836H153.435V11.3184ZM154.582 17.5684L153.12 17.9057L153.122 17.9116L154.582 17.5684ZM156.022 23.6963V25.1963H157.916L157.483 23.3531L156.022 23.6963ZM150.358 23.6963L148.897 23.3586L148.472 25.1963H150.358V23.6963ZM148.851 35.3973L149.803 31.9305L146.91 31.1359L145.958 34.6027L148.851 35.3973ZM148.356 33.0332H157.951V30.0332H148.356V33.0332ZM156.505 31.9305L157.457 35.3973L160.35 34.6027L159.398 31.1359L156.505 31.9305ZM158.903 36.5H174.528V33.5H158.903V36.5ZM175.943 34.5018L163.907 0.322087L161.077 1.31854L173.113 35.4982L175.943 34.5018ZM162.492 -0.679688H144.597V2.32031H162.492V-0.679688ZM143.182 0.322987L131.17 34.5027L134 35.4973L146.012 1.31764L143.182 0.322987ZM132.585 36.5H147.404V33.5H132.585V36.5ZM153.236 17.9056C153.684 15.9663 154.033 14.2417 154.43 11.5362L151.462 11.1005C151.078 13.7172 150.744 15.3618 150.313 17.2311L153.236 17.9056ZM152.946 12.8184H153.435V9.81836H152.946V12.8184ZM151.95 11.5362C152.346 14.2298 152.67 15.9549 153.12 17.9056L156.044 17.2311C155.615 15.3732 155.305 13.7292 154.919 11.1005L151.95 11.5362ZM153.122 17.9116L154.562 24.0395L157.483 23.3531L156.042 17.2251L153.122 17.9116ZM156.022 22.1963H150.358V25.1963H156.022V22.1963ZM151.82 24.034L153.236 17.9061L150.313 17.2306L148.897 23.3586L151.82 24.034ZM233.8 21.2549L235.293 21.3964L235.433 19.9154L233.954 19.7628L233.8 21.2549ZM218.175 19.6436L218.329 18.1515L216.806 17.9945L216.68 19.5197L218.175 19.6436ZM218.248 16.2012L216.75 16.283L216.835 17.838L218.386 17.6948L218.248 16.2012ZM233.849 14.7607L233.987 16.2544L235.457 16.1186L235.344 14.6463L233.849 14.7607ZM212.413 37.2324C219.299 37.2324 224.763 36.0438 228.662 33.4075C232.637 30.7195 234.794 26.6584 235.293 21.3964L232.306 21.1134C231.877 25.6414 230.092 28.8191 226.981 30.9223C223.794 33.0773 219.028 34.2324 212.413 34.2324V37.2324ZM233.954 19.7628L218.329 18.1515L218.021 21.1356L233.646 22.747L233.954 19.7628ZM216.68 19.5197C216.51 21.5722 216.003 22.8388 215.35 23.5801C214.744 24.2678 213.848 24.6865 212.413 24.6865V27.6865C214.494 27.6865 216.296 27.0432 217.6 25.5642C218.857 24.1388 219.474 22.1339 219.67 19.7674L216.68 19.5197ZM212.413 24.6865C210.625 24.6865 209.561 24.1559 208.885 23.2935C208.151 22.356 207.663 20.7592 207.663 18.2031H204.663C204.663 21.0426 205.188 23.4374 206.523 25.1428C207.917 26.9232 209.977 27.6865 212.413 27.6865V24.6865ZM207.663 18.2031V17.5928H204.663V18.2031H207.663ZM207.663 17.5928C207.663 15.037 208.151 13.4322 208.887 12.4876C209.565 11.6187 210.63 11.085 212.413 11.085V8.08496C209.973 8.08496 207.913 8.85739 206.521 10.6435C205.188 12.3539 204.663 14.753 204.663 17.5928H207.663ZM212.413 11.085C213.953 11.085 214.889 11.5215 215.497 12.2105C216.149 12.9484 216.637 14.2136 216.75 16.283L219.746 16.1193C219.615 13.721 219.029 11.678 217.746 10.2248C216.419 8.72268 214.56 8.08496 212.413 8.08496V11.085ZM218.386 17.6948L233.987 16.2544L233.711 13.2671L218.11 14.7075L218.386 17.6948ZM235.344 14.6463C234.937 9.33149 232.821 5.21113 228.831 2.47876C224.919 -0.199226 219.397 -1.41211 212.413 -1.41211V1.58789C219.126 1.58789 223.942 2.76759 227.136 4.95411C230.25 7.08623 232.003 10.3023 232.353 14.8752L235.344 14.6463ZM212.413 -1.41211C204.887 -1.41211 199.011 0.0570726 195 3.31508C190.926 6.62443 189.038 11.5594 189.038 17.8613H192.038C192.038 12.176 193.715 8.22421 196.892 5.64366C200.132 3.01177 205.193 1.58789 212.413 1.58789V-1.41211ZM189.038 17.8613V17.959H192.038V17.8613H189.038ZM189.038 17.959C189.038 24.2723 190.925 29.2081 195.001 32.5149C199.012 35.7699 204.888 37.2324 212.413 37.2324V34.2324C205.192 34.2324 200.131 32.8141 196.891 30.1853C193.715 27.6083 192.038 23.6574 192.038 17.959H189.038ZM255.062 35V36.5H256.562V35H255.062ZM255.062 21.7432V20.2432H253.562V21.7432H255.062ZM264.754 35L263.434 35.7133L263.86 36.5H264.754V35ZM280.989 35V36.5H282.303L282.476 35.1982L280.989 35ZM281.087 34.2676L282.574 34.4658L282.691 33.583L281.973 33.057L281.087 34.2676ZM272.957 17.1533H271.457V18.3552L272.63 18.6172L272.957 17.1533ZM272.957 16.665L272.63 15.2011L271.457 15.4632V16.665H272.957ZM280.647 1.55273L281.536 2.76121L282.252 2.23499L282.134 1.35449L280.647 1.55273ZM280.55 0.820312L282.037 0.622066L281.863 -0.679688H280.55V0.820312ZM264.681 0.820312V-0.679688H263.826L263.39 0.0556087L264.681 0.820312ZM255.062 12.0264H253.562V13.5264H255.062V12.0264ZM255.062 0.820312H256.562V-0.679688H255.062V0.820312ZM239.925 0.820312V-0.679688H238.425V0.820312H239.925ZM239.925 35H238.425V36.5H239.925V35ZM256.562 35V21.7432H253.562V35H256.562ZM255.062 23.2432H258.187V20.2432H255.062V23.2432ZM258.187 23.2432C259.939 23.2432 260.518 23.4088 260.789 23.6172C260.994 23.7737 261.315 24.1978 261.532 25.9331L264.509 25.561C264.286 23.7807 263.875 22.2028 262.615 21.2363C261.422 20.3217 259.803 20.2432 258.187 20.2432V23.2432ZM261.532 25.9331L261.972 29.4487L264.948 29.0766L264.509 25.561L261.532 25.9331ZM261.972 29.4487C262.41 32.9566 262.797 34.5348 263.434 35.7133L266.073 34.2867C265.734 33.6585 265.389 32.6001 264.948 29.0766L261.972 29.4487ZM264.754 36.5H280.989V33.5H264.754V36.5ZM282.476 35.1982L282.574 34.4658L279.6 34.0693L279.502 34.8018L282.476 35.1982ZM281.973 33.057C281.64 32.8138 281.441 32.6422 281.182 32.0601C280.871 31.3577 280.518 30.1338 280.043 27.7708L277.102 28.362C277.579 30.7354 277.983 32.2458 278.44 33.2768C278.951 34.4281 279.533 34.9889 280.201 35.4781L281.973 33.057ZM280.043 27.7708L279.091 23.0344L276.15 23.6257L277.102 28.362L280.043 27.7708ZM279.091 23.0344C278.599 20.5882 277.944 18.8657 276.932 17.6826C275.863 16.4338 274.561 15.9746 273.284 15.6894L272.63 18.6172C273.648 18.8448 274.201 19.1057 274.652 19.6331C275.16 20.2261 275.689 21.3356 276.15 23.6257L279.091 23.0344ZM274.457 17.1533V16.665H271.457V17.1533H274.457ZM273.284 18.129C274.641 17.8258 275.908 17.2565 276.926 16.0589C277.907 14.9044 278.532 13.3119 278.945 11.2184L276.002 10.6371C275.634 12.4986 275.148 13.5184 274.64 14.1157C274.169 14.6698 273.568 14.9915 272.63 15.2011L273.284 18.129ZM278.945 11.2184L279.726 7.26334L276.783 6.68198L276.002 10.6371L278.945 11.2184ZM279.726 7.26334C280.107 5.33718 280.466 4.29012 280.771 3.68549C281.041 3.15211 281.27 2.95699 281.536 2.76121L279.759 0.344258C279.195 0.758827 278.618 1.29613 278.094 2.33136C277.607 3.29533 277.184 4.65306 276.783 6.68198L279.726 7.26334ZM282.134 1.35449L282.037 0.622066L279.063 1.01856L279.161 1.75098L282.134 1.35449ZM280.55 -0.679688H264.681V2.32031H280.55V-0.679688ZM263.39 0.0556087C262.858 0.954431 262.378 2.53647 261.752 5.35332L264.68 6.00411C265.324 3.10806 265.722 2.00455 265.971 1.58502L263.39 0.0556087ZM261.752 5.35332L261.117 8.20976L264.045 8.86055L264.68 6.00411L261.752 5.35332ZM261.117 8.20976C260.813 9.57639 260.508 9.99007 260.282 10.1644C260.042 10.3495 259.559 10.5264 258.187 10.5264V13.5264C259.622 13.5264 261.018 13.3858 262.115 12.5395C263.226 11.6823 263.714 10.3504 264.045 8.86055L261.117 8.20976ZM258.187 10.5264H255.062V13.5264H258.187V10.5264ZM256.562 12.0264V0.820312H253.562V12.0264H256.562ZM255.062 -0.679688H239.925V2.32031H255.062V-0.679688ZM238.425 0.820312V35H241.425V0.820312H238.425ZM239.925 36.5H255.062V33.5H239.925V36.5ZM301.592 35V36.5H302.428L302.868 35.7886L301.592 35ZM307.793 24.9658L306.518 24.1758L306.517 24.1772L307.793 24.9658ZM311.406 18.2764L311.902 16.8606L310.631 16.4158L310.052 17.6315L311.406 18.2764ZM311.895 18.4473L313.387 18.5952L313.504 17.4212L312.39 17.0315L311.895 18.4473ZM311.504 35H310.004V36.5H311.504V35ZM326.641 35V36.5H328.141V35H326.641ZM326.641 0.820312H328.141V-0.679688H326.641V0.820312ZM311.138 0.820312V-0.679688H310.305L309.865 0.0271912L311.138 0.820312ZM304.644 11.2451L305.916 12.0386L305.917 12.0382L304.644 11.2451ZM301.274 17.2021L300.8 18.6252L302.016 19.0305L302.606 17.8926L301.274 17.2021ZM300.762 17.0312L299.271 16.8609L299.133 18.0696L300.287 18.4543L300.762 17.0312ZM301.177 0.820312H302.677V-0.679688H301.177V0.820312ZM286.04 0.820312V-0.679688H284.54V0.820312H286.04ZM286.04 35H284.54V36.5H286.04V35ZM302.868 35.7886L309.069 25.7544L306.517 24.1772L300.316 34.2114L302.868 35.7886ZM309.068 25.7558C310.494 23.4538 311.521 21.5239 312.761 18.9213L310.052 17.6315C308.85 20.1558 307.875 21.9857 306.518 24.1758L309.068 25.7558ZM310.911 19.6922L311.399 19.8631L312.39 17.0315L311.902 16.8606L310.911 19.6922ZM310.402 18.2993C310.13 21.0396 310.004 23.0939 310.004 25.2588H313.004C313.004 23.2245 313.122 21.2749 313.387 18.5952L310.402 18.2993ZM310.004 25.2588V35H313.004V25.2588H310.004ZM311.504 36.5H326.641V33.5H311.504V36.5ZM328.141 35V0.820312H325.141V35H328.141ZM326.641 -0.679688H311.138V2.32031H326.641V-0.679688ZM309.865 0.0271912L303.37 10.452L305.917 12.0382L312.411 1.61343L309.865 0.0271912ZM303.371 10.4516C302.176 12.3677 301.327 13.8427 299.943 16.5117L302.606 17.8926C303.957 15.2881 304.767 13.8823 305.916 12.0386L303.371 10.4516ZM301.749 15.7791L301.236 15.6082L300.287 18.4543L300.8 18.6252L301.749 15.7791ZM302.252 17.2016C302.55 14.5919 302.677 12.5567 302.677 10.3418H299.677C299.677 12.4238 299.559 14.3436 299.271 16.8609L302.252 17.2016ZM302.677 10.3418V0.820312H299.677V10.3418H302.677ZM301.177 -0.679688H286.04V2.32031H301.177V-0.679688ZM284.54 0.820312V35H287.54V0.820312H284.54ZM286.04 36.5H301.592V33.5H286.04V36.5ZM346.633 40.3223V41.8223H348.133V40.3223H346.633ZM346.633 35V33.5H345.133V35H346.633ZM362.697 35H364.197V33.5H362.697V35ZM362.697 40.3223H361.197V41.8223H362.697V40.3223ZM377.102 40.3223V41.8223H378.602V40.3223H377.102ZM377.102 25.2344H378.602V23.7344H377.102V25.2344ZM373.317 25.2344H371.817V26.7344H373.317V25.2344ZM373.317 0.820312H374.817V-0.679688H373.317V0.820312ZM337.526 0.820312V-0.679688H336.073L336.027 0.77324L337.526 0.820312ZM334.841 25.2344V26.7344H335.824L336.216 25.8327L334.841 25.2344ZM332.229 25.2344V23.7344H330.729V25.2344H332.229ZM332.229 40.3223H330.729V41.8223H332.229V40.3223ZM349.318 24.5508L347.94 23.9599L347.708 24.5009L347.906 25.0553L349.318 24.5508ZM351.687 10.5859V9.08594H350.298L350.191 10.47L351.687 10.5859ZM358.181 10.5859H359.681V9.08594H358.181V10.5859ZM358.181 25.2344V26.7344H359.681V25.2344H358.181ZM349.562 25.2344L348.15 25.7389L348.505 26.7344H349.562V25.2344ZM348.133 40.3223V35H345.133V40.3223H348.133ZM346.633 36.5H362.697V33.5H346.633V36.5ZM361.197 35V40.3223H364.197V35H361.197ZM362.697 41.8223H377.102V38.8223H362.697V41.8223ZM378.602 40.3223V25.2344H375.602V40.3223H378.602ZM377.102 23.7344H373.317V26.7344H377.102V23.7344ZM374.817 25.2344V0.820312H371.817V25.2344H374.817ZM373.317 -0.679688H337.526V2.32031H373.317V-0.679688ZM336.027 0.77324C335.534 16.4683 335.446 20.0837 333.465 24.636L336.216 25.8327C338.484 20.6195 338.542 16.2759 339.026 0.867385L336.027 0.77324ZM334.841 23.7344H332.229V26.7344H334.841V23.7344ZM330.729 25.2344V40.3223H333.729V25.2344H330.729ZM332.229 41.8223H346.633V38.8223H332.229V41.8223ZM350.697 25.1417C352.204 21.6245 352.698 16.9425 353.182 10.7019L350.191 10.47C349.698 16.827 349.215 20.9829 347.94 23.9599L350.697 25.1417ZM351.687 12.0859H358.181V9.08594H351.687V12.0859ZM356.681 10.5859V25.2344H359.681V10.5859H356.681ZM358.181 23.7344H349.562V26.7344H358.181V23.7344ZM350.975 24.7299L350.731 24.0463L347.906 25.0553L348.15 25.7389L350.975 24.7299ZM398.046 35V36.5H399.546V35H398.046ZM398.046 21.7432V20.2432H396.546V21.7432H398.046ZM407.738 35L406.419 35.7133L406.844 36.5H407.738V35ZM423.974 35V36.5H425.287L425.46 35.1982L423.974 35ZM424.071 34.2676L425.558 34.4658L425.676 33.583L424.957 33.057L424.071 34.2676ZM415.941 17.1533H414.441V18.3552L415.614 18.6172L415.941 17.1533ZM415.941 16.665L415.614 15.2011L414.441 15.4632V16.665H415.941ZM423.632 1.55273L424.52 2.76121L425.236 2.23499L425.119 1.35449L423.632 1.55273ZM423.534 0.820312L425.021 0.622066L424.847 -0.679688H423.534V0.820312ZM407.665 0.820312V-0.679688H406.81L406.375 0.0556087L407.665 0.820312ZM398.046 12.0264H396.546V13.5264H398.046V12.0264ZM398.046 0.820312H399.546V-0.679688H398.046V0.820312ZM382.909 0.820312V-0.679688H381.409V0.820312H382.909ZM382.909 35H381.409V36.5H382.909V35ZM399.546 35V21.7432H396.546V35H399.546ZM398.046 23.2432H401.171V20.2432H398.046V23.2432ZM401.171 23.2432C402.924 23.2432 403.502 23.4088 403.774 23.6172C403.978 23.7737 404.3 24.1978 404.516 25.9331L407.493 25.561C407.271 23.7807 406.86 22.2028 405.599 21.2363C404.406 20.3217 402.787 20.2432 401.171 20.2432V23.2432ZM404.516 25.9331L404.956 29.4487L407.933 29.0766L407.493 25.561L404.516 25.9331ZM404.956 29.4487C405.394 32.9566 405.782 34.5348 406.419 35.7133L409.058 34.2867C408.718 33.6585 408.373 32.6001 407.933 29.0766L404.956 29.4487ZM407.738 36.5H423.974V33.5H407.738V36.5ZM425.46 35.1982L425.558 34.4658L422.584 34.0693L422.487 34.8018L425.46 35.1982ZM424.957 33.057C424.625 32.8138 424.425 32.6422 424.167 32.0601C423.855 31.3577 423.502 30.1338 423.027 27.7708L420.086 28.362C420.563 30.7354 420.967 32.2458 421.425 33.2768C421.935 34.4281 422.517 34.9889 423.186 35.4781L424.957 33.057ZM423.027 27.7708L422.075 23.0344L419.134 23.6257L420.086 28.362L423.027 27.7708ZM422.075 23.0344C421.583 20.5882 420.928 18.8657 419.916 17.6826C418.848 16.4338 417.545 15.9746 416.268 15.6894L415.614 18.6172C416.633 18.8448 417.186 19.1057 417.637 19.6331C418.144 20.2261 418.674 21.3356 419.134 23.6257L422.075 23.0344ZM417.441 17.1533V16.665H414.441V17.1533H417.441ZM416.268 18.129C417.625 17.8258 418.892 17.2565 419.91 16.0589C420.892 14.9044 421.516 13.3119 421.93 11.2184L418.986 10.6371C418.619 12.4986 418.132 13.5184 417.625 14.1157C417.153 14.6698 416.553 14.9915 415.614 15.2011L416.268 18.129ZM421.93 11.2184L422.711 7.26334L419.768 6.68198L418.986 10.6371L421.93 11.2184ZM422.711 7.26334C423.091 5.33718 423.45 4.29012 423.756 3.68549C424.026 3.15211 424.254 2.95699 424.52 2.76121L422.743 0.344258C422.179 0.758827 421.602 1.29613 421.079 2.33136C420.591 3.29533 420.168 4.65306 419.768 6.68198L422.711 7.26334ZM425.119 1.35449L425.021 0.622066L422.047 1.01856L422.145 1.75098L425.119 1.35449ZM423.534 -0.679688H407.665V2.32031H423.534V-0.679688ZM406.375 0.0556087C405.842 0.954431 405.362 2.53647 404.736 5.35332L407.664 6.00411C408.308 3.10806 408.707 2.00455 408.955 1.58502L406.375 0.0556087ZM404.736 5.35332L404.101 8.20976L407.03 8.86055L407.664 6.00411L404.736 5.35332ZM404.101 8.20976C403.797 9.57639 403.492 9.99007 403.267 10.1644C403.027 10.3495 402.543 10.5264 401.171 10.5264V13.5264C402.606 13.5264 404.003 13.3858 405.099 12.5395C406.21 11.6823 406.699 10.3504 407.03 8.86055L404.101 8.20976ZM401.171 10.5264H398.046V13.5264H401.171V10.5264ZM399.546 12.0264V0.820312H396.546V12.0264H399.546ZM398.046 -0.679688H382.909V2.32031H398.046V-0.679688ZM381.409 0.820312V35H384.409V0.820312H381.409ZM382.909 36.5H398.046V33.5H382.909V36.5ZM444.576 35V36.5H445.413L445.852 35.7886L444.576 35ZM450.777 24.9658L449.502 24.1758L449.501 24.1772L450.777 24.9658ZM454.391 18.2764L454.886 16.8606L453.615 16.4158L453.036 17.6315L454.391 18.2764ZM454.879 18.4473L456.372 18.5952L456.488 17.4212L455.374 17.0315L454.879 18.4473ZM454.488 35H452.988V36.5H454.488V35ZM469.625 35V36.5H471.125V35H469.625ZM469.625 0.820312H471.125V-0.679688H469.625V0.820312ZM454.122 0.820312V-0.679688H453.289L452.849 0.0271912L454.122 0.820312ZM447.628 11.2451L448.901 12.0386L448.901 12.0382L447.628 11.2451ZM444.259 17.2021L443.784 18.6252L445 19.0305L445.59 17.8926L444.259 17.2021ZM443.746 17.0312L442.256 16.8609L442.118 18.0696L443.272 18.4543L443.746 17.0312ZM444.161 0.820312H445.661V-0.679688H444.161V0.820312ZM429.024 0.820312V-0.679688H427.524V0.820312H429.024ZM429.024 35H427.524V36.5H429.024V35ZM445.852 35.7886L452.053 25.7544L449.501 24.1772L443.3 34.2114L445.852 35.7886ZM452.052 25.7558C453.479 23.4538 454.506 21.5239 455.745 18.9213L453.036 17.6315C451.834 20.1558 450.859 21.9857 449.502 24.1758L452.052 25.7558ZM453.895 19.6922L454.383 19.8631L455.374 17.0315L454.886 16.8606L453.895 19.6922ZM453.386 18.2993C453.115 21.0396 452.988 23.0939 452.988 25.2588H455.988C455.988 23.2245 456.106 21.2749 456.372 18.5952L453.386 18.2993ZM452.988 25.2588V35H455.988V25.2588H452.988ZM454.488 36.5H469.625V33.5H454.488V36.5ZM471.125 35V0.820312H468.125V35H471.125ZM469.625 -0.679688H454.122V2.32031H469.625V-0.679688ZM452.849 0.0271912L446.355 10.452L448.901 12.0382L455.395 1.61343L452.849 0.0271912ZM446.355 10.4516C445.161 12.3677 444.311 13.8427 442.927 16.5117L445.59 17.8926C446.941 15.2881 447.752 13.8823 448.901 12.0386L446.355 10.4516ZM444.733 15.7791L444.22 15.6082L443.272 18.4543L443.784 18.6252L444.733 15.7791ZM445.236 17.2016C445.535 14.5919 445.661 12.5567 445.661 10.3418H442.661C442.661 12.4238 442.543 14.3436 442.256 16.8609L445.236 17.2016ZM445.661 10.3418V0.820312H442.661V10.3418H445.661ZM444.161 -0.679688H429.024V2.32031H444.161V-0.679688ZM427.524 0.820312V35H430.524V0.820312H427.524ZM429.024 36.5H444.576V33.5H429.024V36.5ZM488.445 22.8174V24.3174H489.875L489.944 22.8889L488.445 22.8174ZM489.495 0.820312L490.993 0.891818L491.068 -0.679688H489.495V0.820312ZM475.945 0.820312V-0.679688H474.372L474.447 0.891818L475.945 0.820312ZM476.995 22.8174L475.497 22.8889L475.565 24.3174H476.995V22.8174ZM489.446 35V36.5H490.946V35H489.446ZM489.446 24.2822H490.946V22.7822H489.446V24.2822ZM475.994 24.2822V22.7822H474.494V24.2822H475.994ZM475.994 35H474.494V36.5H475.994V35ZM489.944 22.8889L490.993 0.891818L487.997 0.748807L486.947 22.7459L489.944 22.8889ZM489.495 -0.679688H475.945V2.32031H489.495V-0.679688ZM474.447 0.891818L475.497 22.8889L478.493 22.7459L477.444 0.748807L474.447 0.891818ZM476.995 24.3174H488.445V21.3174H476.995V24.3174ZM490.946 35V24.2822H487.946V35H490.946ZM489.446 22.7822H475.994V25.7822H489.446V22.7822ZM474.494 24.2822V35H477.494V24.2822H474.494ZM475.994 36.5H489.446V33.5H475.994V36.5Z" fill="white"/>
</svg>
