<svg width="55" height="51" viewBox="0 0 55 51" fill="none" xmlns="http://www.w3.org/2000/svg">
<path d="M54.0939 41.5271C53.6529 40.8253 53.0765 40.2184 52.3982 39.742C51.72 39.2655 50.9535 38.929 50.1437 38.7521C47.0453 38.0316 44.3582 36.1142 42.6694 33.419C40.9806 30.7236 40.4276 27.4695 41.1311 24.3678C41.4016 23.169 41.3117 21.917 40.8728 20.769C40.4339 19.6211 39.6656 18.6284 38.6643 17.9156C37.6629 17.2029 36.4733 16.8019 35.2447 16.7628C34.0161 16.7239 32.8035 17.0487 31.759 17.6965C30.7144 18.3444 29.8847 19.2863 29.3738 20.4042C28.8631 21.522 28.694 22.7658 28.8879 23.9793C29.0818 25.1929 29.63 26.3222 30.4637 27.2252C31.2974 28.1283 32.3794 28.765 33.5738 29.0552C35.119 29.4037 36.5802 30.0536 37.8737 30.9678C39.1671 31.882 40.2674 33.0425 41.1115 34.3826C41.9555 35.7228 42.5267 37.2163 42.7923 38.7776C43.0579 40.3389 43.0127 41.9373 42.6593 43.4811C42.45 44.4763 42.4873 45.5076 42.768 46.485C43.0487 47.4625 43.5643 48.3564 44.2697 49.0891C44.9752 49.8217 45.8491 50.3707 46.8154 50.6883C47.7817 51.0058 48.811 51.0822 49.8136 50.9109C50.8162 50.7396 51.7617 50.3257 52.5677 49.7053C53.3737 49.0849 54.0156 48.2769 54.4377 47.3516C54.8597 46.4263 55.0491 45.4119 54.9892 44.3967C54.9292 43.3815 54.6219 42.3963 54.0939 41.5271Z" fill="white"/>
<path d="M15.7456 34.6051C16.8367 35.2004 18.0808 35.4562 19.3183 35.3397C20.5558 35.2231 21.7302 34.7396 22.6909 33.9511C23.6517 33.1625 24.3548 32.1049 24.7102 30.9141C25.0656 29.7232 25.0569 28.4534 24.6854 27.2675C24.2145 25.7552 24.0468 24.165 24.1918 22.5878C24.3369 21.0107 24.7917 19.4776 25.5306 18.0766C26.2694 16.6757 27.2775 15.4342 28.4971 14.4235C29.7167 13.4127 31.1238 12.6527 32.6378 12.1868C33.812 11.8191 34.8511 11.1123 35.6245 10.1555C36.3978 9.19865 36.8709 8.03449 36.984 6.80946C37.0972 5.58443 36.8454 4.35329 36.2604 3.27108C35.6754 2.18878 34.7833 1.30367 33.6963 0.727164C32.6093 0.150658 31.3761 -0.0915823 30.1519 0.0310657C28.9276 0.153637 27.7668 0.635523 26.8158 1.41616C25.8648 2.19673 25.1659 3.24114 24.8072 4.4179C24.4485 5.59467 24.4459 6.85123 24.7998 8.02945C25.7287 11.0712 25.4146 14.3571 23.9262 17.1679C22.4377 19.9786 19.8962 22.0853 16.8579 23.0269C15.6585 23.3747 14.591 24.0744 13.7938 25.0356C12.9966 25.9968 12.5063 27.175 12.3865 28.4179C12.2667 29.6608 12.5228 30.911 13.1217 32.0067C13.7206 33.1024 14.6347 33.9931 15.7456 34.5635V34.6051Z" fill="white"/>
<path d="M31.796 33.5865C30.9667 33.6156 30.1516 33.8098 29.3983 34.1579C28.6451 34.5059 27.9688 35.0006 27.4092 35.6132C25.238 37.935 22.2356 39.303 19.0586 39.4179C15.8815 39.5328 12.788 38.3853 10.4547 36.2264C9.85182 35.6608 9.14253 35.2207 8.36801 34.9316C7.59357 34.6426 6.76933 34.5104 5.94325 34.5427C4.92645 34.5906 3.93676 34.8867 3.06073 35.405C2.18462 35.9233 1.44883 36.6482 0.917435 37.5162C0.385965 38.3842 0.0751648 39.3692 0.0119965 40.3849C-0.0510955 41.4008 0.135355 42.4166 0.555229 43.3438C0.975104 44.2709 1.61549 45.0812 2.42064 45.704C3.22579 46.3268 4.1711 46.743 5.17416 46.9164C6.17721 47.0899 7.20754 47.0153 8.17507 46.699C9.14269 46.3828 10.0181 45.8346 10.725 45.1022C11.8003 43.9382 13.0946 42.9977 14.534 42.3347C15.9734 41.6717 17.5295 41.299 19.1131 41.2382C20.6968 41.1774 22.2769 41.4295 23.7629 41.9802C25.2489 42.531 26.6117 43.3694 27.7731 44.4475C28.5292 45.1306 29.4412 45.6179 30.4293 45.8671C31.4174 46.1163 32.4515 46.1195 33.4412 45.8767C34.4309 45.6338 35.3459 45.1523 36.1063 44.474C36.8668 43.7958 37.4494 42.9415 37.8034 41.9861C38.1573 41.0306 38.2716 40.0031 38.1365 38.9932C38.0013 37.9834 37.6207 37.0221 37.0279 36.1932C36.4352 35.3645 35.6484 34.6936 34.7363 34.2391C33.8242 33.7847 32.8147 33.5606 31.796 33.5865Z" fill="white"/>
</svg>
