<svg width="20" height="22" viewBox="0 0 20 22" fill="none" xmlns="http://www.w3.org/2000/svg">
<path fill-rule="evenodd" clip-rule="evenodd" d="M1 0C0.447715 0 0 0.447715 0 1V4.33647C0 4.88875 0.447715 5.33647 1 5.33647H19C19.5523 5.33647 20 4.88876 20 4.33647V1C20 0.447715 19.5523 0 19 0H1ZM0 9.13159C0 8.57931 0.447715 8.13159 1 8.13159H19C19.5523 8.13159 20 8.57931 20 9.13159V12.4681C20 13.0203 19.5523 13.4681 19 13.4681H1C0.447715 13.4681 0 13.0203 0 12.4681V9.13159ZM0 17.2633C0 16.711 0.447715 16.2633 1 16.2633H19C19.5523 16.2633 20 16.711 20 17.2633V20.5998C20 21.1521 19.5523 21.5998 19 21.5998H1C0.447715 21.5998 0 21.1521 0 20.5998V17.2633Z" fill="#E5E6E9"/>
</svg>
