<svg width="18" height="18" viewBox="0 0 18 18" fill="none" xmlns="http://www.w3.org/2000/svg">
<path d="M15.2341 10.7331C14.1299 11.0399 12.964 11.048 11.8557 10.7565C10.7473 10.465 9.73628 9.88439 8.92591 9.07402C8.11555 8.26366 7.53493 7.25262 7.24343 6.14428C6.95192 5.03594 6.96 3.87006 7.26682 2.76587L7.267 2.76592C6.17791 3.0689 5.18721 3.65195 4.3936 4.45699C3.59999 5.26203 3.03116 6.26096 2.74379 7.35428C2.45642 8.44759 2.46053 9.59711 2.75571 10.6883C3.0509 11.7796 3.62686 12.7744 4.42621 13.5738C5.22556 14.3731 6.2204 14.949 7.31163 15.2442C8.40287 15.5394 9.55239 15.5435 10.6457 15.2561C11.739 14.9687 12.7379 14.3999 13.543 13.6063C14.348 12.8127 14.931 11.822 15.234 10.7329L15.2341 10.7331Z" stroke="white" stroke-linecap="round" stroke-linejoin="round"/>
</svg>
