<svg width="31" height="32" viewBox="0 0 31 32" fill="none" xmlns="http://www.w3.org/2000/svg">
<path d="M9.64293 28.6071C10.708 28.6071 11.5715 27.7437 11.5715 26.6786C11.5715 25.6135 10.708 24.75 9.64293 24.75C8.57781 24.75 7.71436 25.6135 7.71436 26.6786C7.71436 27.7437 8.57781 28.6071 9.64293 28.6071Z" fill="url(#paint0_linear_209_3144)"/>
<path d="M22.1786 28.6071C23.2437 28.6071 24.1071 27.7437 24.1071 26.6786C24.1071 25.6135 23.2437 24.75 22.1786 24.75C21.1135 24.75 20.25 25.6135 20.25 26.6786C20.25 27.7437 21.1135 28.6071 22.1786 28.6071Z" fill="url(#paint1_linear_209_3144)"/>
<path d="M5.09701 9.32143C13.5431 9.32143 26.7246 9.32143 26.7246 9.32143L23.5426 20.4584C23.4274 20.8614 23.1842 21.2159 22.8496 21.4682C22.515 21.7206 22.1073 21.8571 21.6882 21.8571H10.1334C9.71427 21.8571 9.30657 21.7206 8.97199 21.4682C8.6374 21.2159 8.39413 20.8614 8.279 20.4584C8.279 20.4584 3.97685 5.40086 3.91928 5.19938C3.86171 4.99789 3.74008 4.82064 3.57278 4.69445C3.40549 4.56826 3.20164 4.5 2.9921 4.5H0.964355" stroke="url(#paint2_linear_209_3144)" stroke-width="1.5" stroke-linecap="round" stroke-linejoin="round"/>
<defs>
<linearGradient id="paint0_linear_209_3144" x1="7.14423" y1="22.4743" x2="13.5191" y2="22.7566" gradientUnits="userSpaceOnUse">
<stop stop-color="#AB83FE"/>
<stop offset="0.677083" stop-color="#66A6FF"/>
</linearGradient>
<linearGradient id="paint1_linear_209_3144" x1="19.6799" y1="22.4743" x2="26.0548" y2="22.7566" gradientUnits="userSpaceOnUse">
<stop stop-color="#AB83FE"/>
<stop offset="0.677083" stop-color="#66A6FF"/>
</linearGradient>
<linearGradient id="paint2_linear_209_3144" x1="-2.84327" y1="-5.74072" x2="39.6319" y2="-2.94877" gradientUnits="userSpaceOnUse">
<stop stop-color="#AB83FE"/>
<stop offset="0.677083" stop-color="#66A6FF"/>
</linearGradient>
</defs>
</svg>
