<svg width="18" height="15" viewBox="0 0 18 15" fill="none" xmlns="http://www.w3.org/2000/svg">
<path fill-rule="evenodd" clip-rule="evenodd" d="M13.0747 14.7426C14.1066 15.194 14.4935 14.2482 14.4935 14.2482L17.2237 0.533032C17.2022 -0.391341 15.9553 0.167582 15.9553 0.167582L0.670927 6.16526C0.670927 6.16526 -0.059973 6.42323 0.00451818 6.87467C0.0690094 7.3261 0.64943 7.54107 0.64943 7.54107L4.49741 8.8309C4.49741 8.8309 5.65825 12.6359 5.89471 13.3668C6.10968 14.0762 6.30316 14.0977 6.30316 14.0977C6.51813 14.1837 6.7116 14.0332 6.7116 14.0332L9.20526 11.776L13.0747 14.7426ZM13.7398 2.96213C13.7398 2.96213 14.2773 2.63968 14.2558 2.96213C14.2558 2.96213 14.3417 3.00513 14.0623 3.30608C13.8043 3.56405 7.72065 9.02431 6.90376 9.75521C6.83927 9.7982 6.79628 9.86269 6.79628 9.94868L6.55981 11.9694C6.51682 12.1844 6.23735 12.2059 6.17286 12.0124L5.1625 8.70185C5.11951 8.57287 5.1625 8.42239 5.29148 8.3364L13.7398 2.96213Z" fill="white"/>
</svg>
