<svg width="31" height="31" viewBox="0 0 31 31" fill="none" xmlns="http://www.w3.org/2000/svg">
<path fill-rule="evenodd" clip-rule="evenodd" d="M12.3547 11.3686C12.3547 9.63141 13.763 8.22314 15.5002 8.22314C17.2374 8.22314 18.6456 9.63141 18.6456 11.3686C18.6456 13.1058 17.2374 14.5141 15.5002 14.5141C13.763 14.5141 12.3547 13.1058 12.3547 11.3686ZM15.5002 6.72314C12.9346 6.72314 10.8547 8.80299 10.8547 11.3686C10.8547 13.9342 12.9346 16.0141 15.5002 16.0141C18.0658 16.0141 20.1456 13.9342 20.1456 11.3686C20.1456 8.80299 18.0658 6.72314 15.5002 6.72314ZM11.6044 18.4095C10.3724 18.4095 9.1908 18.899 8.31961 19.7701C7.44841 20.6413 6.95898 21.8229 6.95898 23.055V25.0027C6.95898 25.4169 7.29477 25.7527 7.70898 25.7527C8.1232 25.7527 8.45898 25.4169 8.45898 25.0027V23.055C8.45898 22.2208 8.79038 21.4207 9.38027 20.8308C9.97015 20.2409 10.7702 19.9095 11.6044 19.9095H19.3953C20.2296 19.9095 21.0296 20.2409 21.6195 20.8308C22.2094 21.4207 22.5408 22.2208 22.5408 23.055V25.0027C22.5408 25.4169 22.8766 25.7527 23.2908 25.7527C23.705 25.7527 24.0408 25.4169 24.0408 25.0027V23.055C24.0408 21.8229 23.5514 20.6413 22.6802 19.7701C21.809 18.899 20.6274 18.4095 19.3953 18.4095H11.6044Z" fill="url(#paint0_linear_2_1869)"/>
<circle cx="15.4996" cy="15.5001" r="12.5357" stroke="url(#paint1_linear_2_1869)" stroke-width="1.5"/>
<defs>
<linearGradient id="paint0_linear_2_1869" x1="4.43412" y1="-4.5043" x2="32.6768" y2="-3.38147" gradientUnits="userSpaceOnUse">
<stop stop-color="#AB83FE"/>
<stop offset="0.677083" stop-color="#66A6FF"/>
</linearGradient>
<linearGradient id="paint1_linear_2_1869" x1="-1.71366" y1="-13.4628" x2="42.2022" y2="-11.5178" gradientUnits="userSpaceOnUse">
<stop stop-color="#AB83FE"/>
<stop offset="0.677083" stop-color="#66A6FF"/>
</linearGradient>
</defs>
</svg>
