<svg width="20" height="15" viewBox="0 0 20 15" fill="none" xmlns="http://www.w3.org/2000/svg">
<path fill-rule="evenodd" clip-rule="evenodd" d="M17.8258 0.428334C18.6825 0.658976 19.3579 1.33443 19.5885 2.19109C20.0169 3.75616 20.0004 7.01809 20.0004 7.01809C20.0004 7.01809 20.0004 10.2635 19.5885 11.8286C19.3579 12.6853 18.6825 13.3607 17.8258 13.5914C16.2607 14.0032 10.0004 14.0032 10.0004 14.0032C10.0004 14.0032 3.75665 14.0032 2.17511 13.5749C1.31844 13.3443 0.64299 12.6688 0.412348 11.8121C0.000488281 10.2635 0.000488281 7.00162 0.000488281 7.00162C0.000488281 7.00162 0.000488281 3.75616 0.412348 2.19109C0.64299 1.33443 1.33491 0.642501 2.17511 0.41186C3.74018 0 10.0004 0 10.0004 0C10.0004 0 16.2607 0 17.8258 0.428334ZM13.2134 7.00169L8.00747 10V4.00335L13.2134 7.00169Z" fill="white"/>
</svg>
